<svg width="7" height="7" viewBox="0 0 7 7" fill="none" xmlns="http://www.w3.org/2000/svg">
<g clip-path="url(#clip0_41_1076)">
<path d="M5.41385 4.33111L5.02996 4.67574C4.97853 4.72046 4.93512 4.70018 4.85299 4.70018C4.6277 4.70018 4.41942 4.79306 4.28124 4.95559C4.12946 5.13402 4.09407 5.37659 4.19004 5.58923C4.23739 5.68948 4.37177 5.73406 4.48135 5.67722C4.441 5.73889 4.44719 5.81484 4.48476 5.86541H2.97714V4.84315C4.01716 4.28044 3.65845 4.47451 3.73607 4.43254L4.23498 4.68245C4.28921 4.7095 4.35349 4.66145 4.33231 4.60851L4.01581 3.80378C4.0124 3.79522 4.00695 3.78789 4.00016 3.78117L3.87084 3.66263H3.94571C4.54808 3.66263 5.08444 3.91926 5.4268 4.31705C5.42339 4.32197 5.41863 4.32685 5.41385 4.33111ZM5.81816 5.34361V5.80433C5.81816 5.83794 5.78753 5.86544 5.75009 5.86544H5.27364C5.50537 5.7094 5.59917 5.47122 5.56428 5.26234C5.56087 5.23668 5.57381 5.20674 5.59696 5.18536L5.78277 5.01855C5.80591 5.12364 5.81816 5.23239 5.81816 5.34361ZM2.06372 4.41973L1.54849 4.67758C1.49438 4.70456 1.42999 4.65715 1.45116 4.60426L1.77719 3.77448C1.7806 3.76592 1.78603 3.75798 1.79284 3.75187L1.89047 3.66266H1.87246C0.839911 3.66266 0 4.41667 0 5.34361V5.80433C0 5.83794 0.0306262 5.86544 0.0680699 5.86544H2.84101V4.83998C1.77582 4.26406 2.14319 4.4627 2.06372 4.41973ZM2.46298 3.07659C2.43572 3.05331 2.43474 3.01465 2.46065 2.99024C2.48664 2.96571 2.52971 2.96489 2.55683 2.98815C2.75373 3.15654 3.06213 3.15654 3.25901 2.98815C3.2862 2.96487 3.3292 2.96571 3.35519 2.99024C3.38112 3.01465 3.38012 3.05331 3.35286 3.07659C3.10343 3.29002 2.71253 3.29009 2.46298 3.07659Z" fill="#373737"/>
<path d="M1.90733 3.82836C1.8957 3.83579 1.8972 3.83484 1.90733 3.82836V3.82836ZM3.27731 2.20896C3.26282 2.24018 3.27923 2.27592 3.31394 2.28887C3.34857 2.30187 3.38859 2.2872 3.40295 2.25598C3.42517 2.2082 3.50092 2.2082 3.52306 2.25592C3.53771 2.28771 3.57823 2.30165 3.612 2.28887C3.6467 2.27592 3.66319 2.24018 3.6487 2.20902C3.58063 2.06212 3.34625 2.06029 3.27731 2.20896ZM2.1702 2.20896C2.15571 2.24018 2.17212 2.27592 2.20683 2.28887C2.24146 2.30187 2.28148 2.2872 2.29584 2.25598C2.31803 2.20826 2.39379 2.20816 2.41595 2.25592C2.4306 2.28771 2.47112 2.30165 2.50489 2.28887C2.53959 2.27592 2.55608 2.24018 2.54159 2.20902C2.47352 2.06212 2.23914 2.06029 2.1702 2.20896ZM4.43305 1.5167V1.19774C4.43305 0.806672 4.139 0.462058 3.71906 0.359408L3.08809 0.205432C2.97171 0.176721 2.84851 0.176721 2.73144 0.205432L2.09982 0.359408C1.67918 0.462058 1.38582 0.806696 1.38582 1.19774V1.51731C1.85614 1.29735 2.3782 1.18247 2.9091 1.18247C3.44 1.18247 3.96272 1.29735 4.43305 1.5167Z" fill="#373737"/>
<path d="M4.62431 1.83383C4.62023 1.78312 4.58892 1.73667 4.53992 1.71041C4.04714 1.44522 3.48289 1.30469 2.9091 1.30469C2.33599 1.30469 1.77243 1.44523 1.27964 1.71041C1.23065 1.73667 1.19933 1.78312 1.19524 1.83383C1.18878 1.92899 1.26744 1.9796 1.36334 2.01966C1.1593 2.18777 1.25834 2.48766 1.52671 2.53224L1.54372 2.65017C1.59682 3.0229 1.83368 3.33941 2.16516 3.53129V3.66339C2.1596 3.66696 1.95143 3.80016 1.90734 3.82837L1.64666 4.49317L2.03939 4.29643C2.06001 4.28531 2.08589 4.28615 2.10746 4.29704C2.18535 4.33926 1.82955 4.14641 2.84799 4.69842V4.67757C2.84154 4.66913 2.51263 4.23848 2.53356 4.26587C2.42186 4.11981 2.34236 3.95379 2.30131 3.7826V3.60095C2.48577 3.68283 2.69269 3.72866 2.90912 3.72866C3.12217 3.72866 3.33044 3.68467 3.51762 3.60156V3.78124C3.48016 3.95887 3.40042 4.13164 3.28518 4.28165C3.28051 4.28775 2.95325 4.7152 2.9741 4.68796V4.70046C3.96379 4.16503 3.62245 4.34971 3.69628 4.30975C3.71738 4.29814 3.74326 4.29754 3.76435 4.30854L4.14074 4.49673L3.88958 3.85698C3.88359 3.85205 3.6812 3.68529 3.65373 3.66267V3.53253C3.98446 3.34392 4.22248 3.02122 4.27584 2.65019L4.29217 2.53226C4.44669 2.5066 4.56375 2.38501 4.56375 2.23897C4.56375 2.15214 4.52147 2.07439 4.45521 2.01967C4.5518 1.98065 4.63221 1.92831 4.62431 1.83383ZM4.23158 2.41491C4.19754 2.41491 4.16896 2.43813 4.16419 2.46869L4.14037 2.63488C4.06089 3.18567 3.54026 3.60643 2.90908 3.60643C2.2824 3.60643 1.757 3.18413 1.67917 2.63488L1.65535 2.46869C1.65058 2.43813 1.62199 2.41491 1.58728 2.41491C1.47905 2.41491 1.39057 2.3361 1.39057 2.23894C1.39057 2.13995 1.47701 2.06235 1.58728 2.06235C1.58751 2.06235 1.58768 2.06224 1.58791 2.06224C1.65583 2.06046 1.72405 2.04691 1.78873 2.01959C2.50069 1.71713 3.31814 1.71713 4.03011 2.01959C4.08924 2.04447 4.15306 2.05706 4.21725 2.05979C4.22202 2.06072 4.22651 2.06235 4.23158 2.06235C4.3398 2.06235 4.42761 2.14179 4.42761 2.23894C4.42761 2.33608 4.3398 2.41491 4.23158 2.41491ZM6.56824 4.54132C6.44027 4.6562 6.26467 4.71057 6.08361 4.6898C6.0135 4.68248 5.93863 4.7063 5.88487 4.75457L5.50098 5.0992C5.44722 5.14748 5.42067 5.21408 5.4295 5.27762C5.45243 5.42591 5.39886 5.59185 5.26342 5.71268C5.09415 5.86463 4.84348 5.90511 4.63246 5.82572C4.58808 5.8103 4.57534 5.75722 4.61 5.72611L4.78832 5.56663C4.83759 5.52241 4.83898 5.44774 4.78832 5.40226C4.73933 5.35827 4.65424 5.35827 4.60523 5.40226L4.4269 5.56234C4.39378 5.59207 4.33513 5.58321 4.31595 5.54217C4.23837 5.37048 4.26626 5.17433 4.38946 5.02951C4.51674 4.87981 4.71616 4.80404 4.92377 4.82604C4.99727 4.83399 5.07215 4.81016 5.12591 4.76187L5.5098 4.41725C5.56289 4.36959 5.59011 4.30177 5.58128 4.23638C5.5561 4.05001 5.64049 3.87098 5.80725 3.75672C5.96856 3.64613 6.18706 3.62107 6.37832 3.69073C6.42165 3.70578 6.43607 3.75866 6.40079 3.79033L6.22246 3.95042C6.17247 3.99529 6.17239 4.06923 6.22246 4.11418C6.27146 4.15817 6.35654 4.15817 6.40556 4.11418L6.58389 3.9547C6.61605 3.92457 6.67472 3.9326 6.69484 3.97425C6.784 4.16981 6.73432 4.39222 6.56824 4.54132Z" fill="#373737"/>
</g>
<defs>
<clipPath id="clip0_41_1076">
<rect width="6.73855" height="6.04938" fill="white"/>
</clipPath>
</defs>
</svg>
