<svg width="6" height="6" viewBox="0 0 6 6" fill="none" xmlns="http://www.w3.org/2000/svg">
<path d="M5.9 4.50165H0.5V5.10165H5.9V4.50165Z" fill="#4B515D"/>
<path d="M5.89999 5.10162V5.40162C5.90024 5.43522 5.89688 5.46874 5.89 5.50162H0.509997C0.503108 5.46874 0.499756 5.43522 0.499997 5.40162V5.10162H5.89999ZM5.89999 4.20162V4.50162H0.499997V4.20162C0.499756 4.16803 0.503108 4.13451 0.509997 4.10162H5.89C5.89688 4.13451 5.90024 4.16803 5.89999 4.20162Z" fill="#CECECE"/>
<path d="M0.509995 5.5016H5.88999C5.86694 5.61453 5.80557 5.71604 5.71628 5.78893C5.62699 5.86182 5.51526 5.90162 5.39999 5.9016H0.999994C0.884729 5.90162 0.772996 5.86182 0.683704 5.78893C0.594413 5.71604 0.533048 5.61453 0.509995 5.5016ZM5.88999 4.1016H0.509995C0.533048 3.98866 0.594413 3.88716 0.683704 3.81427C0.772996 3.74138 0.884729 3.70158 0.999994 3.7016H5.39999C5.51526 3.70158 5.62699 3.74138 5.71628 3.81427C5.80557 3.88716 5.86694 3.98866 5.88999 4.1016Z" fill="#4B515D"/>
<path d="M2.80002 0.101624C2.26601 0.101624 1.744 0.259976 1.29998 0.556655C0.85597 0.853335 0.509904 1.27502 0.305548 1.76838C0.101191 2.26174 0.0477222 2.80462 0.151902 3.32837C0.256082 3.85211 0.513232 4.33321 0.890834 4.71081C1.26844 5.08841 1.74953 5.34556 2.27328 5.44974C2.79703 5.55392 3.33991 5.50045 3.83327 5.2961C4.32663 5.09174 4.74831 4.74567 5.04499 4.30166C5.34167 3.85765 5.50002 3.33563 5.50002 2.80162C5.50002 2.08554 5.21556 1.39878 4.70921 0.892435C4.20286 0.386087 3.51611 0.101624 2.80002 0.101624ZM2.80002 4.20162C2.52313 4.20162 2.25245 4.11951 2.02222 3.96568C1.79199 3.81185 1.61255 3.5932 1.50659 3.33738C1.40063 3.08156 1.3729 2.80007 1.42692 2.5285C1.48094 2.25692 1.61428 2.00747 1.81007 1.81167C2.00587 1.61588 2.25532 1.48254 2.5269 1.42852C2.79847 1.3745 3.07996 1.40223 3.33578 1.50819C3.59159 1.61415 3.81024 1.7936 3.96408 2.02382C4.11791 2.25405 4.20002 2.52473 4.20002 2.80162C4.20002 3.17293 4.05252 3.52902 3.78997 3.79157C3.52742 4.05412 3.17132 4.20162 2.80002 4.20162Z" fill="#4B515D"/>
<path d="M4.16799 2.50167C4.21066 2.6994 4.21066 2.90395 4.16799 3.10167H3.52399L3.97899 3.55567C3.87011 3.72638 3.72544 3.87139 3.55499 3.98067L3.09999 3.52567V4.16967C2.90227 4.21234 2.69772 4.21234 2.49999 4.16967V3.52567L2.04499 3.98067C1.87454 3.87139 1.72987 3.72638 1.62099 3.55567L2.07599 3.10167H1.432C1.38933 2.90395 1.38933 2.6994 1.432 2.50167H2.07599L1.62099 2.04767C1.72997 1.87671 1.87503 1.73165 2.04599 1.62267L2.49999 2.07767V1.43367C2.69772 1.39101 2.90227 1.39101 3.09999 1.43367V2.07767L3.55399 1.62267C3.72496 1.73165 3.87002 1.87671 3.97899 2.04767L3.52399 2.50167H4.16799Z" fill="#DFDFDF"/>
<path d="M2.8 1.00159C2.44399 1.00159 2.09598 1.10716 1.79997 1.30494C1.50397 1.50273 1.27326 1.78385 1.13702 2.11276C1.00078 2.44166 0.965134 2.80358 1.03459 3.15275C1.10404 3.50191 1.27547 3.82264 1.52721 4.07438C1.77894 4.32611 2.09967 4.49755 2.44884 4.567C2.798 4.63645 3.15992 4.60081 3.48883 4.46457C3.81774 4.32833 4.09886 4.09762 4.29664 3.80161C4.49443 3.5056 4.6 3.15759 4.6 2.80159C4.6 2.3242 4.41036 1.86636 4.07279 1.52879C3.73523 1.19123 3.27739 1.00159 2.8 1.00159ZM2.8 4.20159C2.52311 4.20159 2.25243 4.11948 2.0222 3.96564C1.79197 3.81181 1.61253 3.59316 1.50657 3.33734C1.40061 3.08153 1.37288 2.80003 1.4269 2.52846C1.48092 2.25689 1.61426 2.00743 1.81005 1.81164C2.00584 1.61584 2.2553 1.48251 2.52687 1.42849C2.79845 1.37447 3.07994 1.40219 3.33576 1.50816C3.59157 1.61412 3.81022 1.79356 3.96406 2.02379C4.11789 2.25402 4.2 2.52469 4.2 2.80159C4.2 3.17289 4.0525 3.52898 3.78995 3.79154C3.5274 4.05409 3.1713 4.20159 2.8 4.20159Z" fill="#C6C5CA"/>
<path d="M2.80001 0.901611C2.42422 0.901611 2.05688 1.01304 1.74443 1.22182C1.43197 1.43059 1.18845 1.72733 1.04464 2.07451C0.900832 2.42169 0.863206 2.80372 0.936518 3.17228C1.00983 3.54085 1.19079 3.87939 1.45651 4.14511C1.72223 4.41083 2.06077 4.59179 2.42934 4.6651C2.7979 4.73841 3.17993 4.70079 3.52711 4.55698C3.87429 4.41317 4.17103 4.16965 4.3798 3.85719C4.58858 3.54474 4.70001 3.1774 4.70001 2.80161C4.69956 2.29784 4.49924 1.81483 4.14301 1.45861C3.78679 1.10238 3.30378 0.902061 2.80001 0.901611ZM2.80001 4.50161C2.46378 4.50161 2.1351 4.40191 1.85554 4.21511C1.57598 4.02831 1.35808 3.76281 1.22941 3.45217C1.10075 3.14154 1.06708 2.79972 1.13267 2.46996C1.19827 2.14019 1.36018 1.83728 1.59793 1.59953C1.83568 1.36178 2.13859 1.19987 2.46836 1.13428C2.79812 1.06868 3.13994 1.10235 3.45057 1.23102C3.7612 1.35969 4.02671 1.57758 4.21351 1.85714C4.40031 2.13671 4.50001 2.46538 4.50001 2.80161C4.49937 3.25228 4.32006 3.68432 4.00139 4.00299C3.68271 4.32166 3.25068 4.50098 2.80001 4.50161Z" fill="black"/>
<path d="M5.481 3.60761C5.59703 3.22244 5.6287 2.81679 5.57386 2.41828C5.51902 2.01977 5.37895 1.63775 5.1632 1.29824C4.94744 0.958722 4.66107 0.669683 4.32356 0.450797C3.98606 0.231911 3.60536 0.0883179 3.20737 0.0297924C2.80938 -0.028733 2.40346 -0.000816071 2.01723 0.111643C1.631 0.224101 1.27354 0.418461 0.969177 0.68149C0.664818 0.944519 0.420706 1.27004 0.253463 1.63589C0.0862194 2.00175 -0.000229295 2.39934 2.24045e-06 2.80161C-0.000642068 3.30913 0.137693 3.80713 0.400002 4.24161V5.40161C0.400002 5.56074 0.463216 5.71335 0.575738 5.82587C0.68826 5.9384 0.840872 6.00161 1 6.00161H5.4C5.55913 6.00161 5.71174 5.9384 5.82426 5.82587C5.93679 5.71335 6 5.56074 6 5.40161V4.20161C5.99975 4.05663 5.94707 3.91664 5.85168 3.80747C5.75629 3.69829 5.62463 3.62731 5.481 3.60761ZM5.744 4.00161H5.329C5.36 3.93661 5.388 3.87061 5.414 3.80261C5.48134 3.80518 5.54694 3.82478 5.60465 3.85958C5.66236 3.89438 5.7103 3.94325 5.744 4.00161ZM0.501002 4.01361C0.425664 3.87203 0.363727 3.72372 0.316002 3.57061L0.508002 3.51961L0.456002 3.32661L0.265002 3.37761C0.229546 3.22122 0.208789 3.06186 0.203002 2.90161H0.400002V2.70161H0.203002C0.208789 2.54136 0.229546 2.382 0.265002 2.22561L0.456002 2.27661L0.508002 2.08361L0.316002 2.03261C0.363727 1.8795 0.425664 1.73119 0.501002 1.58961L0.672002 1.68861L0.772002 1.51461L0.601002 1.41661C0.686628 1.28136 0.784363 1.15418 0.893002 1.03661L1.032 1.17561L1.174 1.03361L1.035 0.894611C1.15257 0.785973 1.27975 0.688238 1.415 0.602612L1.513 0.773611L1.687 0.673612L1.588 0.502612C1.72958 0.427273 1.87789 0.365337 2.031 0.317612L2.082 0.509612L2.275 0.457612L2.224 0.266612C2.38039 0.231155 2.53975 0.210398 2.7 0.204612V0.401612H2.9V0.204612C3.06025 0.210398 3.21961 0.231155 3.376 0.266612L3.325 0.457612L3.518 0.509612L3.569 0.317612C3.72211 0.365337 3.87042 0.427273 4.012 0.502612L3.913 0.673612L4.087 0.773611L4.185 0.602612C4.32025 0.688238 4.44744 0.785973 4.565 0.894611L4.426 1.03361L4.568 1.17561L4.707 1.03661C4.81564 1.15418 4.91337 1.28136 4.999 1.41661L4.828 1.51461L4.928 1.68861L5.099 1.58961C5.17434 1.73119 5.23628 1.8795 5.284 2.03261L5.092 2.08361L5.144 2.27661L5.335 2.22561C5.37046 2.382 5.39121 2.54136 5.397 2.70161H5.2V2.90161H5.397C5.39121 3.06186 5.37046 3.22122 5.335 3.37761L5.144 3.32661L5.092 3.51961L5.284 3.57061C5.23628 3.72372 5.17434 3.87203 5.099 4.01361L4.928 3.91461L4.828 4.08861L4.999 4.18661C4.91337 4.32186 4.81564 4.44905 4.707 4.56661L4.568 4.42761L4.426 4.56961L4.565 4.70861C4.44744 4.81725 4.32025 4.91498 4.185 5.00061L4.087 4.82961L3.913 4.92961L4.012 5.10061C3.87042 5.17595 3.72211 5.23788 3.569 5.28561L3.518 5.09361L3.325 5.14561L3.376 5.33661C3.21961 5.37207 3.06025 5.39282 2.9 5.39861V5.20161H2.7V5.39861C2.53975 5.39282 2.38039 5.37207 2.224 5.33661L2.275 5.14561L2.082 5.09361L2.031 5.28561C1.87789 5.23788 1.72958 5.17595 1.588 5.10061L1.687 4.92961L1.513 4.82961L1.415 5.00061C1.27975 4.91498 1.15257 4.81725 1.035 4.70861L1.174 4.56961L1.032 4.42761L0.893002 4.56661C0.784363 4.44905 0.686628 4.32186 0.601002 4.18661L0.772002 4.08861L0.672002 3.91461L0.501002 4.01361ZM1.071 5.00161H0.600002V4.53061C0.737957 4.70556 0.896047 4.86365 1.071 5.00161ZM0.600002 5.20161H1.36C1.48864 5.27918 1.62343 5.34607 1.763 5.40161H0.600002V5.20161ZM5.4 5.80161H1C0.930155 5.80139 0.861597 5.78279 0.801214 5.74768C0.740831 5.71258 0.69075 5.6622 0.656002 5.60161H5.744C5.70925 5.6622 5.65917 5.71258 5.59879 5.74768C5.53841 5.78279 5.46985 5.80139 5.4 5.80161ZM5.8 5.40161H3.837C3.97657 5.34607 4.11136 5.27918 4.24 5.20161H5.8V5.40161ZM5.8 5.00161H4.529C4.68016 4.88261 4.81887 4.74859 4.943 4.60161H5.8V5.00161ZM5.8 4.40161H5.096C5.141 4.33661 5.184 4.27061 5.223 4.20161H5.8V4.40161Z" fill="black"/>
<path d="M2.8 1.30164C2.50333 1.30164 2.21332 1.38961 1.96665 1.55443C1.71997 1.71925 1.52772 1.95352 1.41418 2.22761C1.30065 2.5017 1.27095 2.8033 1.32883 3.09427C1.3867 3.38524 1.52956 3.65252 1.73934 3.86229C1.94912 4.07207 2.2164 4.21493 2.50737 4.27281C2.79834 4.33069 3.09994 4.30099 3.37403 4.18745C3.64812 4.07392 3.88239 3.88166 4.04721 3.63499C4.21203 3.38832 4.3 3.09831 4.3 2.80164C4.29953 2.40396 4.14134 2.0227 3.86014 1.7415C3.57894 1.4603 3.19768 1.30211 2.8 1.30164ZM3.957 2.21164C3.98844 2.27272 4.01486 2.33627 4.036 2.40164H3.766L3.957 2.21164ZM3.2 1.56564C3.26537 1.58678 3.32892 1.6132 3.39 1.64464L3.2 1.83564V1.56564ZM2.4 1.56564V1.83564L2.21 1.64464C2.27109 1.6132 2.33463 1.58678 2.4 1.56564ZM1.643 2.21164L1.834 2.40164H1.564C1.58514 2.33627 1.61156 2.27272 1.643 2.21164ZM1.643 3.39163C1.61156 3.33055 1.58514 3.267 1.564 3.20163H1.834L1.643 3.39163ZM2.4 4.03763C2.33413 4.01659 2.27022 3.98982 2.209 3.95763L2.4 3.76663V4.03763ZM3.2 4.03763V3.76663L3.391 3.95763C3.32979 3.98982 3.26588 4.01659 3.2 4.03763ZM3.957 3.39163L3.766 3.20163H4.036C4.01486 3.267 3.98844 3.33055 3.957 3.39163ZM3.524 3.00163C3.50422 3.00156 3.48487 3.00743 3.46847 3.01849C3.45206 3.02954 3.43936 3.04527 3.432 3.06363C3.42435 3.08185 3.42225 3.10192 3.42599 3.12132C3.42973 3.14072 3.43913 3.15857 3.453 3.17263L3.849 3.56663C3.76972 3.67491 3.67427 3.77035 3.566 3.84963L3.171 3.45463C3.15694 3.44076 3.13908 3.43136 3.11968 3.42762C3.10029 3.42388 3.08021 3.42598 3.062 3.43363C3.04364 3.44099 3.02791 3.45369 3.01685 3.4701C3.0058 3.4865 2.99993 3.50585 3 3.52564V4.08463C2.86763 4.1073 2.73237 4.1073 2.6 4.08463V3.52564C2.60008 3.50585 2.59421 3.4865 2.58315 3.4701C2.5721 3.45369 2.55637 3.44099 2.538 3.43363C2.51979 3.42598 2.49972 3.42388 2.48032 3.42762C2.46092 3.43136 2.44307 3.44076 2.429 3.45463L2.034 3.84963C1.92573 3.77035 1.83028 3.67491 1.751 3.56663L2.147 3.17263C2.16088 3.15857 2.17028 3.14072 2.17402 3.12132C2.17775 3.10192 2.17566 3.08185 2.168 3.06363C2.16065 3.04527 2.14794 3.02954 2.13154 3.01849C2.11513 3.00743 2.09579 3.00156 2.076 3.00163H1.517C1.49434 2.86927 1.49434 2.73401 1.517 2.60164H2.076C2.09579 2.60171 2.11513 2.59584 2.13154 2.58478C2.14794 2.57373 2.16065 2.558 2.168 2.53964C2.17566 2.52142 2.17775 2.50135 2.17402 2.48195C2.17028 2.46255 2.16088 2.4447 2.147 2.43064L1.751 2.03664C1.83062 1.92802 1.92639 1.83225 2.035 1.75264L2.429 2.14864C2.44792 2.16729 2.47344 2.17771 2.5 2.17764C2.5264 2.17725 2.55161 2.16659 2.57029 2.14792C2.58896 2.12925 2.59962 2.10404 2.6 2.07764V1.51864C2.73237 1.49597 2.86763 1.49597 3 1.51864V2.07764C3.00039 2.10404 3.01105 2.12925 3.02972 2.14792C3.04839 2.16659 3.0736 2.17725 3.1 2.17764C3.12657 2.17771 3.15209 2.16729 3.171 2.14864L3.565 1.75264C3.67361 1.83225 3.76939 1.92802 3.849 2.03664L3.453 2.43064C3.43913 2.4447 3.42973 2.46255 3.42599 2.48195C3.42225 2.50135 3.42435 2.52142 3.432 2.53964C3.43936 2.558 3.45206 2.57373 3.46847 2.58478C3.48487 2.59584 3.50422 2.60171 3.524 2.60164H4.083C4.10567 2.73401 4.10567 2.86927 4.083 3.00163H3.524Z" fill="black"/>
</svg>
